<?xml version="1.0" encoding="utf-8"?>
<!-- Generator: Adobe Illustrator 24.3.0, SVG Export Plug-In . SVG Version: 6.00 Build 0)  -->
<svg version="1.0" id="Laag_1" xmlns="http://www.w3.org/2000/svg" xmlns:xlink="http://www.w3.org/1999/xlink" x="0px" y="0px"
	 viewBox="0 0 192.5 192.5" style="enable-background:new 0 0 192.5 192.5;" xml:space="preserve">
<style type="text/css">
	.st0{fill:#00BCE7;}
	.st1{fill:url(#SVGID_1_);}
	.st2{fill:url(#SVGID_2_);}
	.st3{display:none;}
	.st4{display:inline;}
	.st5{fill:none;stroke:#E81E89;stroke-width:0.2624;stroke-miterlimit:10;}
	.st6{fill:none;stroke:#E81E89;stroke-width:0.1319;stroke-miterlimit:10;}
	.st7{fill:none;stroke:#E81E89;stroke-width:9.110000e-02;stroke-miterlimit:10;}
</style>
<g id="Laag_1_1_">
	<g>
		<path class="st0" d="M96.3,192.5C43.2,192.5,0,149.4,0,96.3C0,43.2,43.2,0,96.3,0s96.3,43.2,96.3,96.3
			C192.5,149.4,149.4,192.5,96.3,192.5z M96.3,4C45.4,4,4,45.4,4,96.3s41.4,92.3,92.3,92.3s92.3-41.4,92.3-92.3S147.2,4,96.3,4z"/>
		<path class="st0" d="M167.8,87.3C167.8,87.3,167.8,87.3,167.8,87.3c0-0.4,0-0.7-0.1-0.8c-4.6-35.4-34.8-62.3-71.5-62.3
			C56.4,24.2,24,56.6,24,96.4s32.4,72.2,72.2,72.2h24.3l23.8-24H96.3C69.7,144.7,48,123,48,96.4s21.6-48.3,48.3-48.3
			s48.3,21.6,48.3,48.3v0h-0.1H96.2L72,120.7h67.3c2.9,0,6.1-1.3,8.2-3.3l15-15c3.1-3.1,5.1-7.7,5.2-11.6
			C167.8,89.1,167.8,87.5,167.8,87.3z"/>
		
			<linearGradient id="SVGID_1_" gradientUnits="userSpaceOnUse" x1="84.8651" y1="59.3398" x2="209.0239" y2="59.3398" gradientTransform="matrix(1 0 0 -1 0 191.8898)">
			<stop  offset="0" style="stop-color:#00BCE7"/>
			<stop  offset="0.8995" style="stop-color:#002D5B"/>
		</linearGradient>
		<path class="st1" d="M37.3,96.4c5.7,0,10.5,4.1,11.7,9.7c4.5,22,24,38.5,47.3,38.5h48.2l-23.8,24H96.3c-35,0-64.2-25-70.8-58.1
			c-1.5-7.3,4.2-14.1,11.7-14.1H37.3z"/>
		
			<linearGradient id="SVGID_2_" gradientUnits="userSpaceOnUse" x1="66.1182" y1="131.5548" x2="176.0156" y2="131.5548" gradientTransform="matrix(1 0 0 -1 0 191.8898)">
			<stop  offset="0" style="stop-color:#00BCE7"/>
			<stop  offset="0.8995" style="stop-color:#002D5B"/>
		</linearGradient>
		<path class="st2" d="M144.5,96.4L144.5,96.4l14.7,0c3.1,0,6.9-1.8,8.1-5.5c0.3-1.1,0.4-2,0.5-2.6c0-0.2,0-0.5,0-1
			c0-0.5,0-0.8-0.1-0.8c-4.6-35.4-34.8-62.3-71.5-62.3c-22.7,0-43.1,10.6-56.3,27C30,63.6,51.6,75.5,57.7,67.5
			c8.8-11.7,22.8-19.3,38.6-19.3C122.9,48.2,144.5,69.8,144.5,96.4z"/>
	</g>
</g>
<g id="schematisch_ontwerp" class="st3">
	<g class="st4">
		<g>
			<g>
				<line class="st5" x1="-4.6" y1="-4.4" x2="197.5" y2="197.6"/>
				<line class="st5" x1="-4.6" y1="197.6" x2="197.5" y2="-4.4"/>
				<line class="st5" x1="67.7" y1="197.6" x2="269.7" y2="-4.4"/>
				<line class="st5" x1="91.9" y1="197.6" x2="293.9" y2="-4.4"/>
			</g>
			<g>
				<line class="st5" x1="-46.4" y1="96.6" x2="234.6" y2="96.6"/>
				<line class="st5" x1="-44.9" y1="120.9" x2="234.6" y2="120.9"/>
				<line class="st5" x1="-46.4" y1="72.4" x2="234.6" y2="72.4"/>
				<line class="st5" x1="96.5" y1="239.5" x2="96.5" y2="-46.3"/>
				<path class="st5" d="M651,130.7"/>
				<path class="st5" d="M-44.9,130.7"/>
			</g>
		</g>
		<circle class="st5" cx="96.5" cy="96.5" r="24.2"/>
		<circle class="st5" cx="644.6" cy="107.5" r="24.2"/>
		<circle class="st5" cx="-24.3" cy="97" r="24.2"/>
		<circle class="st5" cx="96.4" cy="-24.6" r="24.1"/>
		<circle class="st5" cx="96.4" cy="217.2" r="24.1"/>
		<circle class="st5" cx="96.5" cy="96.5" r="48.3"/>
		<circle class="st5" cx="96.5" cy="96.5" r="72.3"/>
		<circle class="st5" cx="96.5" cy="96.5" r="48.3"/>
		<circle class="st6" cx="139.4" cy="108.7" r="12.1"/>
		<circle class="st7" cx="159.7" cy="88.2" r="8.4"/>
		<line class="st5" x1="-45.2" y1="130.9" x2="650.7" y2="130.9"/>
		<line class="st5" x1="-44.9" y1="61" x2="651" y2="61"/>
	</g>
</g>
</svg>
