<?xml version="1.0" encoding="utf-8"?>
<svg version="1.1" xmlns="http://www.w3.org/2000/svg" xmlns:xlink="http://www.w3.org/1999/xlink" x="0px" y="0px"
	 viewBox="0 0 620.74 192.53" style="enable-background:new 0 0 620.74 192.53;" xml:space="preserve">
<style type="text/css">
	.st0{fill:#002D5B;}
	.st1{fill:#00BCE7;}
	.st2{fill:url(#SVGID_1_);}
	.st3{fill:url(#SVGID_2_);}
	.st4{display:none;}
	.st5{display:inline;}
	.st6{fill:none;stroke:#E81E89;stroke-width:0.2624;stroke-miterlimit:10;}
	.st7{fill:none;stroke:#E81E89;stroke-width:0.1319;stroke-miterlimit:10;}
	.st8{fill:none;stroke:#E81E89;stroke-width:0.0911;stroke-miterlimit:10;}
</style>
<g id="Laag_1">
	<path class="st0" d="M403.59,22.97v47.38h0.28c0.47-1.32,1.27-2.63,2.4-3.95c1.13-1.32,2.49-2.49,4.09-3.52
		c1.6-1.03,3.48-1.88,5.64-2.54c2.16-0.66,4.51-0.98,7.05-0.98c5.36,0,9.68,0.82,12.97,2.47c3.29,1.65,5.85,3.93,7.68,6.84
		c1.83,2.91,3.08,6.35,3.74,10.29c0.66,3.95,0.99,8.23,0.99,12.83v39.26h-21.15V96.01c0-1.97-0.07-4.02-0.21-6.13
		c-0.14-2.11-0.56-4.07-1.27-5.85c-0.7-1.78-1.79-3.24-3.24-4.37c-1.46-1.13-3.55-1.69-6.28-1.69c-2.73,0-4.94,0.49-6.63,1.48
		c-1.69,0.99-2.98,2.31-3.88,3.95c-0.89,1.64-1.48,3.5-1.76,5.57c-0.28,2.07-0.42,4.23-0.42,6.49v35.59h-21.15V22.97H403.59z"/>
	<path class="st0" d="M522.37,131.03h-21.25v-9.39v-0.3c-0.75,1.32-1.05,1.55-2.22,2.87c-1.18,1.32-2.61,2.49-4.3,3.53
		c-1.69,1.03-3.62,1.88-5.78,2.54c-2.17,0.66-4.51,0.99-7.05,0.99c-5.36,0-9.71-0.83-13.04-2.47c-3.34-1.64-5.92-3.92-7.76-6.84
		c-1.83-2.91-3.06-6.35-3.67-10.3c-0.61-3.95-0.92-8.22-0.92-12.83V61.04h21.15V94.6c0,1.97,0.07,4.02,0.21,6.14
		c0.14,2.11,0.56,4.07,1.27,5.85c0.7,1.79,1.78,3.24,3.24,4.37c1.46,1.13,3.55,1.69,6.28,1.69c2.73,0,4.94-0.49,6.63-1.48
		c1.69-0.99,2.98-2.3,3.88-3.95c0.89-1.64,1.48-3.5,1.76-5.57c0.28-2.07,0.42-4.23,0.42-6.49V61.04h21.15V131.03z"/>
	<path class="st0" d="M531.14,40.36c0-3.23,1.14-5.99,3.43-8.27c2.29-2.29,5.04-3.43,8.27-3.43s5.99,1.14,8.27,3.43
		c2.29,2.29,3.43,5.04,3.43,8.27c0,3.23-1.14,5.98-3.43,8.27c-2.29,2.29-5.04,3.43-8.27,3.43s-5.99-1.14-8.27-3.43
		C532.29,46.35,531.14,43.59,531.14,40.36 M532.27,61.04h21.15v69.96h-21.15V61.04z"/>
	<path class="st0" d="M258.6,95.53v-0.21c0-10.45,8.5-18.94,18.95-18.94c8.37,0,15.62,5.51,17.87,13.49H283l-16.42,16.26h28.55
		c1.99,0,3.87-0.77,5.28-2.17c1.11-1.1,2.19-2.17,3.24-3.21l1.4-1.38c1.69-1.67,3.6-3.56,5-5.1c0.14-0.16,0.3-0.32,0.46-0.48
		c1.14-1.19,2.71-2.83,2.43-5.96l-0.04-0.27c-1.51-7.4-5.33-14.06-11.04-19.27c-6.66-6.08-15.29-9.42-24.29-9.42
		c-20.11,0-36.47,16.36-36.47,36.47v0.21c0,13.28,7.25,25.45,18.93,31.75c4.52,2.43,9.79,3.72,15.25,3.72h19.53L311.67,114h-34.59
		C266.89,114,258.6,105.71,258.6,95.53z"/>
	<path class="st0" d="M344.42,131.03c7.34,0,14.61-0.55,21.1-4.3c3.01-1.74,5.47-4.04,7.4-6.91c1.93-2.87,2.69-6.71,2.69-11.13
		c0-4.32-0.87-7.78-2.61-10.36c-1.74-2.59-3.95-4.63-6.63-6.14s-5.55-2.61-8.6-3.31c-3.06-0.7-5.92-1.36-8.6-1.97
		c-2.68-0.61-4.89-1.32-6.63-2.11c-1.74-0.8-2.61-2.05-2.61-3.74c0-2.07,0.85-3.52,2.54-4.37c1.69-0.85,3.43-1.27,5.22-1.27
		c5.07,0,9.16,1.93,12.26,5.78l12.86-13.44c-3.17-3.32-7.04-5.63-11.59-6.93c-4.61-1.32-9.16-1.97-13.68-1.97
		c-3.57,0-7.1,0.44-10.58,1.34c-6,1.54-11.32,4.79-14.71,10.09c-0.32,0.5-0.62,1.04-0.9,1.58c-0.04,0.06-0.08,0.12-0.11,0.18
		c-1.04,1.84-1.75,3.92-2.13,6.22c-0.93,4.62-0.56,9.58,1.65,13.54c0.2,0.36,0.4,0.71,0.63,1.04c1.74,2.59,3.95,4.58,6.63,6
		c2.68,1.41,5.55,2.46,8.6,3.17c3.05,0.71,5.92,1.36,8.6,1.97c2.25,0.51,5.45,1,7.44,2.23c2.63,1.62,2.93,5.25-0.41,6.84
		c-1.06,0.5-2.49,0.92-3.66,0.92c-7.67,0-13.94,0-19.24,0l-16.96,17.06H344.42z"/>
	<path class="st0" d="M589.56,131.03c7.34,0,14.61-0.55,21.1-4.3c3.01-1.74,5.47-4.04,7.4-6.91c1.93-2.87,2.69-6.71,2.69-11.13
		c0-4.32-0.87-7.78-2.61-10.36c-1.74-2.59-3.95-4.63-6.63-6.14s-5.55-2.61-8.6-3.31c-3.06-0.7-5.92-1.36-8.6-1.97
		c-2.68-0.61-4.89-1.32-6.63-2.11c-1.74-0.8-2.61-2.05-2.61-3.74c0-2.07,0.85-3.52,2.54-4.37c1.69-0.85,3.43-1.27,5.22-1.27
		c5.07,0,9.16,1.93,12.26,5.78l12.86-13.44c-3.17-3.32-7.04-5.63-11.59-6.93c-4.61-1.32-9.16-1.97-13.68-1.97
		c-3.57,0-7.1,0.44-10.58,1.34c-6,1.54-11.32,4.79-14.71,10.09c-0.32,0.5-0.62,1.04-0.9,1.58c-0.04,0.06-0.08,0.12-0.11,0.18
		c-1.04,1.84-1.75,3.92-2.13,6.22c-0.93,4.62-0.56,9.58,1.65,13.54c0.2,0.36,0.4,0.71,0.63,1.04c1.74,2.59,3.95,4.58,6.63,6
		c2.68,1.41,5.55,2.46,8.6,3.17c3.05,0.71,5.92,1.36,8.6,1.97c2.25,0.51,5.45,1,7.44,2.23c2.63,1.62,2.93,5.25-0.41,6.84
		c-1.06,0.5-2.49,0.92-3.66,0.92c-7.67,0-13.94,0-19.24,0l-16.96,17.06H589.56z"/>
	<g>
		<path class="st1" d="M96.27,192.53C43.18,192.53,0,149.35,0,96.27C0,43.18,43.18,0,96.27,0s96.27,43.18,96.27,96.27
			C192.53,149.35,149.35,192.53,96.27,192.53z M96.27,3.98c-50.89,0-92.29,41.4-92.29,92.29s41.4,92.29,92.29,92.29
			s92.29-41.4,92.29-92.29S147.16,3.98,96.27,3.98z"/>
		<path class="st1" d="M167.81,87.3c0,0.02,0,0.03,0,0.05c-0.01-0.49-0.04-0.78-0.05-0.84c-4.59-35.37-34.84-62.3-71.5-62.3
			c-39.82,0-72.22,32.4-72.22,72.22c0,39.82,32.4,72.22,72.22,72.22h24.35l23.82-23.97H96.27c-26.61,0-48.26-21.65-48.26-48.26
			s21.65-48.26,48.26-48.26s48.26,21.65,48.26,48.26l0,0.03h-0.06H96.25L72,120.72l67.29,0c2.89,0,6.15-1.26,8.2-3.29l15.01-14.99
			c3.07-3.07,5.06-7.7,5.25-11.62C167.82,89.1,167.83,87.55,167.81,87.3z"/>
		<linearGradient id="SVGID_1_" gradientUnits="userSpaceOnUse" x1="84.8651" y1="132.5475" x2="209.0239" y2="132.5475">
			<stop  offset="0" style="stop-color:#00BCE7"/>
			<stop  offset="0.8995" style="stop-color:#002D5B"/>
		</linearGradient>
		<path class="st2" d="M37.28,96.44c5.73,0,10.55,4.1,11.71,9.71c4.51,21.97,23.99,38.54,47.27,38.54h48.17l-23.82,23.97H96.27
			c-34.99,0-64.24-25.01-70.83-58.08c-1.46-7.33,4.23-14.14,11.71-14.14H37.28z"/>
		<linearGradient id="SVGID_2_" gradientUnits="userSpaceOnUse" x1="66.1182" y1="60.3394" x2="176.0156" y2="60.3394">
			<stop  offset="0" style="stop-color:#00BCE7"/>
			<stop  offset="0.8995" style="stop-color:#002D5B"/>
		</linearGradient>
		<path class="st3" d="M144.52,96.44l0,0.03h14.67c3.1,0,6.9-1.8,8.1-5.5c0.3-1.1,0.43-1.96,0.48-2.62c0.02-0.22,0.03-0.5,0.03-1.01
			c-0.01-0.49-0.04-0.78-0.05-0.84c-4.59-35.37-34.84-62.3-71.5-62.3c-22.74,0-43.07,10.57-56.32,27.05
			C30,63.64,51.61,75.55,57.68,67.48c8.81-11.72,22.83-19.3,38.58-19.3C122.87,48.18,144.52,69.83,144.52,96.44z"/>
	</g>
</g>
<g id="schematisch_ontwerp" class="st4">
	<g class="st5">
		<g>
			<g>
				<line class="st6" x1="-4.56" y1="-4.43" x2="197.49" y2="197.62"/>
				<line class="st6" x1="-4.56" y1="197.62" x2="197.49" y2="-4.43"/>
				<line class="st6" x1="67.69" y1="197.62" x2="269.74" y2="-4.43"/>
				<line class="st6" x1="91.89" y1="197.62" x2="293.94" y2="-4.43"/>
			</g>
			<g>
				<line class="st6" x1="-46.41" y1="96.6" x2="234.55" y2="96.6"/>
				<line class="st6" x1="-44.93" y1="120.9" x2="234.55" y2="120.9"/>
				<line class="st6" x1="-46.41" y1="72.42" x2="234.55" y2="72.42"/>
				<line class="st6" x1="96.46" y1="239.47" x2="96.46" y2="-46.27"/>
				<path class="st6" d="M650.99,130.69"/>
				<path class="st6" d="M-44.93,130.69"/>
			</g>
		</g>
		<circle class="st6" cx="96.46" cy="96.51" r="24.15"/>
		<circle class="st6" cx="644.64" cy="107.52" r="24.15"/>
		<circle class="st6" cx="-24.28" cy="96.96" r="24.15"/>
		<circle class="st6" cx="96.38" cy="-24.59" r="24.15"/>
		<circle class="st6" cx="96.38" cy="217.18" r="24.15"/>
		<circle class="st6" cx="96.46" cy="96.51" r="48.29"/>
		<circle class="st6" cx="96.46" cy="96.51" r="72.28"/>
		<circle class="st6" cx="96.46" cy="96.51" r="48.29"/>
		<circle class="st7" cx="139.42" cy="108.74" r="12.14"/>
		<circle class="st8" cx="159.71" cy="88.19" r="8.38"/>
		<line class="st6" x1="-45.19" y1="130.94" x2="650.73" y2="130.94"/>
		<line class="st6" x1="-44.93" y1="61" x2="650.99" y2="61"/>
	</g>
</g>
</svg>
